<mxfile host="app.diagrams.net" modified="2023-10-24T12:53:43.650Z" agent="Mozilla/5.0 (Macintosh; Intel Mac OS X 10_15_7) AppleWebKit/537.36 (KHTML, like Gecko) Chrome/118.0.0.0 Safari/537.36" etag="ruyBWy59Fzw747TonoYs" version="22.0.6" type="github">
  <diagram id="NvUz_SYXkuDFG-lKDkzq" name="Page-1">
    <mxGraphModel dx="2215" dy="2096" grid="1" gridSize="10" guides="1" tooltips="1" connect="1" arrows="1" fold="1" page="1" pageScale="1" pageWidth="827" pageHeight="1169" background="none" math="0" shadow="0">
      <root>
        <mxCell id="0" />
        <mxCell id="1" parent="0" />
        <mxCell id="kvlJhPONZ6eViCYn_CgA-21" value="" style="rounded=0;whiteSpace=wrap;html=1;labelBackgroundColor=none;sketch=1;hachureGap=4;jiggle=2;curveFitting=1;strokeColor=default;strokeWidth=0;fontFamily=Architects Daughter;fontSource=https%3A%2F%2Ffonts.googleapis.com%2Fcss%3Ffamily%3DArchitects%2BDaughter;fontSize=20;gradientColor=none;" parent="1" vertex="1">
          <mxGeometry x="-145" y="-140" width="1130" height="1010" as="geometry" />
        </mxCell>
        <mxCell id="kvlJhPONZ6eViCYn_CgA-6" value="" style="whiteSpace=wrap;html=1;aspect=fixed;sketch=1;hachureGap=4;jiggle=2;curveFitting=1;fontFamily=Architects Daughter;fontSource=https%3A%2F%2Ffonts.googleapis.com%2Fcss%3Ffamily%3DArchitects%2BDaughter;fontSize=20;labelBackgroundColor=none;gradientColor=none;strokeColor=none;strokeWidth=0;" parent="1" vertex="1">
          <mxGeometry x="60" y="60" width="700" height="700" as="geometry" />
        </mxCell>
        <mxCell id="kvlJhPONZ6eViCYn_CgA-7" value="&lt;h1&gt;The Eisenhower Matrix&lt;/h1&gt;" style="text;html=1;strokeColor=none;fillColor=none;spacing=5;spacingTop=-20;whiteSpace=wrap;overflow=hidden;rounded=0;fontSize=20;fontFamily=Architects Daughter;" parent="1" vertex="1">
          <mxGeometry x="-132" y="-120" width="530" height="80" as="geometry" />
        </mxCell>
        <mxCell id="kvlJhPONZ6eViCYn_CgA-10" value="&lt;h5&gt;Important but Not Urgent Tasks&lt;/h5&gt;&lt;h1&gt;Schedule&lt;/h1&gt;" style="rounded=1;whiteSpace=wrap;html=1;sketch=1;hachureGap=4;jiggle=2;curveFitting=1;fontFamily=Architects Daughter;fontSource=https%3A%2F%2Ffonts.googleapis.com%2Fcss%3Ffamily%3DArchitects%2BDaughter;fontSize=20;fillColor=#dae8fc;strokeColor=#6c8ebf;" parent="1" vertex="1">
          <mxGeometry x="78" y="80" width="320" height="320" as="geometry" />
        </mxCell>
        <mxCell id="kvlJhPONZ6eViCYn_CgA-11" value="&lt;h5&gt;Neither Urgent Nor Important Tasks&amp;nbsp;&lt;/h5&gt;&lt;h1&gt;Eliminate&lt;/h1&gt;" style="rounded=1;whiteSpace=wrap;html=1;sketch=1;hachureGap=4;jiggle=2;curveFitting=1;fontFamily=Architects Daughter;fontSource=https%3A%2F%2Ffonts.googleapis.com%2Fcss%3Ffamily%3DArchitects%2BDaughter;fontSize=20;fillColor=#f8cecc;strokeColor=#b85450;" parent="1" vertex="1">
          <mxGeometry x="78" y="420" width="320" height="320" as="geometry" />
        </mxCell>
        <mxCell id="kvlJhPONZ6eViCYn_CgA-12" value="&lt;h5&gt;&lt;span style=&quot;background-color: initial;&quot;&gt;Important and Urgent Tasks&lt;/span&gt;&lt;/h5&gt;&lt;h1&gt;Do Now&lt;/h1&gt;" style="rounded=1;whiteSpace=wrap;html=1;sketch=1;hachureGap=4;jiggle=2;curveFitting=1;fontFamily=Architects Daughter;fontSource=https%3A%2F%2Ffonts.googleapis.com%2Fcss%3Ffamily%3DArchitects%2BDaughter;fontSize=20;fillColor=#d5e8d4;strokeColor=#82b366;" parent="1" vertex="1">
          <mxGeometry x="416" y="80" width="320" height="320" as="geometry" />
        </mxCell>
        <mxCell id="kvlJhPONZ6eViCYn_CgA-13" value="&lt;h5&gt;Urgent but Not Important Tasks&amp;nbsp;&lt;/h5&gt;&lt;h1&gt;Delegate&lt;/h1&gt;" style="rounded=1;whiteSpace=wrap;html=1;sketch=1;hachureGap=4;jiggle=2;curveFitting=1;fontFamily=Architects Daughter;fontSource=https%3A%2F%2Ffonts.googleapis.com%2Fcss%3Ffamily%3DArchitects%2BDaughter;fontSize=20;fillColor=#ffe6cc;strokeColor=#d79b00;" parent="1" vertex="1">
          <mxGeometry x="416" y="420" width="320" height="320" as="geometry" />
        </mxCell>
        <mxCell id="kvlJhPONZ6eViCYn_CgA-14" value="" style="endArrow=classic;startArrow=classic;html=1;rounded=0;sketch=1;hachureGap=4;jiggle=2;curveFitting=1;fontFamily=Architects Daughter;fontSource=https%3A%2F%2Ffonts.googleapis.com%2Fcss%3Ffamily%3DArchitects%2BDaughter;fontSize=16;" parent="1" edge="1">
          <mxGeometry width="50" height="50" relative="1" as="geometry">
            <mxPoint x="-20" y="410" as="sourcePoint" />
            <mxPoint x="850" y="410" as="targetPoint" />
          </mxGeometry>
        </mxCell>
        <mxCell id="kvlJhPONZ6eViCYn_CgA-15" value="" style="endArrow=classic;startArrow=classic;html=1;rounded=0;sketch=1;hachureGap=4;jiggle=2;curveFitting=1;fontFamily=Architects Daughter;fontSource=https%3A%2F%2Ffonts.googleapis.com%2Fcss%3Ffamily%3DArchitects%2BDaughter;fontSize=16;" parent="1" edge="1">
          <mxGeometry width="50" height="50" relative="1" as="geometry">
            <mxPoint x="408" y="10" as="sourcePoint" />
            <mxPoint x="408" y="793" as="targetPoint" />
          </mxGeometry>
        </mxCell>
        <mxCell id="kvlJhPONZ6eViCYn_CgA-17" value="&lt;span&gt;Important&lt;/span&gt;" style="text;html=1;align=center;verticalAlign=middle;resizable=0;points=[];autosize=1;strokeColor=none;fillColor=none;fontSize=20;fontFamily=Architects Daughter;fontStyle=1" parent="1" vertex="1">
          <mxGeometry x="359" y="-30" width="110" height="40" as="geometry" />
        </mxCell>
        <mxCell id="kvlJhPONZ6eViCYn_CgA-18" value="&lt;span style=&quot;border-color: var(--border-color); color: rgb(0, 0, 0); font-family: &amp;quot;Architects Daughter&amp;quot;; font-size: 20px; font-style: normal; font-variant-ligatures: normal; font-variant-caps: normal; letter-spacing: normal; orphans: 2; text-align: center; text-indent: 0px; text-transform: none; widows: 2; word-spacing: 0px; -webkit-text-stroke-width: 0px; background-color: rgb(251, 251, 251); text-decoration-thickness: initial; text-decoration-style: initial; text-decoration-color: initial;&quot;&gt;Not Important&lt;/span&gt;" style="text;whiteSpace=wrap;html=1;fontSize=20;fontFamily=Architects Daughter;fontStyle=1" parent="1" vertex="1">
          <mxGeometry x="342" y="810" width="156" height="50" as="geometry" />
        </mxCell>
        <mxCell id="kvlJhPONZ6eViCYn_CgA-19" value="&lt;b&gt;Urgent&lt;/b&gt;" style="text;html=1;align=center;verticalAlign=middle;resizable=0;points=[];autosize=1;strokeColor=none;fillColor=none;fontSize=20;fontFamily=Architects Daughter;" parent="1" vertex="1">
          <mxGeometry x="870" y="390" width="80" height="40" as="geometry" />
        </mxCell>
        <mxCell id="kvlJhPONZ6eViCYn_CgA-20" value="&lt;span&gt;Not &lt;br&gt;Urgent&lt;/span&gt;" style="text;html=1;align=center;verticalAlign=middle;resizable=0;points=[];autosize=1;strokeColor=none;fillColor=none;fontSize=20;fontFamily=Architects Daughter;fontStyle=1" parent="1" vertex="1">
          <mxGeometry x="-110" y="380" width="80" height="60" as="geometry" />
        </mxCell>
      </root>
    </mxGraphModel>
  </diagram>
</mxfile>
